<svg width="40" height="40" viewBox="0 0 40 40" fill="none" xmlns="http://www.w3.org/2000/svg">
<path d="M21.5625 9.45C22.1375 8.99375 22.5 8.2875 22.5 7.5C22.5 6.11875 21.3812 5 20 5C18.6187 5 17.5 6.11875 17.5 7.5C17.5 8.2875 17.8687 8.99375 18.4375 9.45L14.1625 16.175C13.5375 17.1562 12.2062 17.4 11.275 16.7L7.55625 13.9187C7.8375 13.5187 8 13.025 8 12.5C8 11.1187 6.88125 10 5.5 10C4.11875 10 3 11.1187 3 12.5C3 13.8625 4.09375 14.975 5.45 15L7.4875 28.5937C7.78125 30.55 9.4625 32 11.4437 32H28.5562C30.5375 32 32.2187 30.55 32.5125 28.5937L34.55 15C35.9062 14.975 37 13.8625 37 12.5C37 11.1187 35.8812 10 34.5 10C33.1187 10 32 11.1187 32 12.5C32 13.025 32.1625 13.5187 32.4437 13.9187L28.7312 16.7062C27.8 17.4062 26.4687 17.1625 25.8437 16.1812L21.5625 9.45Z" fill="#EFB700"/>
</svg>
